<?xml version="1.0" encoding="UTF-8"?><svg id="_イヤー_1" xmlns="http://www.w3.org/2000/svg" viewBox="0 0 50 49.67"><defs><style>.cls-1{fill:#1876f0;}</style></defs><path class="cls-1" d="M28.89,40.94c0-2.75,0-5.5,0-8.25,0-.5,0-.51,.51-.51,1.63,0,3.25,0,4.88,0,.35,0,.47-.13,.51-.45,.31-2.1,.63-4.21,.96-6.31,.05-.34-.08-.41-.37-.4-1.99,0-3.98,0-5.97,0q-.52,0-.52-.53c0-1.39,0-2.78,0-4.18,0-.42,.03-.84,.14-1.25,.41-1.51,1.47-2.42,3.04-2.61,1.18-.14,2.36-.04,3.54-.07,.51-.01,.51,0,.51-.51,0-1.73,0-3.46,0-5.19,0-.29-.09-.42-.38-.46-1.83-.27-3.67-.46-5.52-.42-1.94,.04-3.78,.46-5.41,1.57-1.55,1.06-2.55,2.52-3.13,4.28-.42,1.27-.57,2.57-.56,3.9,0,1.61,0,3.23,0,4.84q0,.62-.61,.62c-1.74,0-3.49,0-5.23,0-.49,0-.49,0-.49,.49,0,2.07,0,4.14,0,6.21,0,.44,.02,.46,.45,.46,1.79,0,3.58,0,5.37,0,.49,0,.5,0,.5,.48,0,5.51,0,11.02,0,16.53,0,.49-.02,.51-.5,.42-2.25-.39-4.4-1.09-6.46-2.08-2.98-1.43-5.57-3.39-7.78-5.84-2.17-2.41-3.81-5.14-4.91-8.2C.64,31.16,.16,28.75,.03,26.27c-.23-4.59,.74-8.9,2.86-12.96,1.33-2.56,3.08-4.81,5.21-6.74C11.95,3.08,16.44,.92,21.61,.23c4.84-.64,9.48,.03,13.92,2.09,2.98,1.38,5.59,3.27,7.81,5.68,3.54,3.86,5.72,8.37,6.42,13.58,.71,5.28-.15,10.3-2.62,15.02-1.66,3.18-3.92,5.86-6.73,8.08-2.93,2.31-6.23,3.85-9.86,4.7-.41,.1-.82,.17-1.24,.25-.4,.07-.42,.05-.42-.35,0-2.78,0-5.57,0-8.35Z"/></svg>