<?xml version="1.0" encoding="UTF-8"?><svg id="_イヤー_1" xmlns="http://www.w3.org/2000/svg" viewBox="0 0 50 50"><path d="M24.98,50c-5.52,0-11.03,0-16.55,0C3.62,49.99,0,46.37,0,41.57c0-11.07,0-22.14,0-33.22C0,3.67,3.66,0,8.33,0c11.09,0,22.18,0,33.28,0,4.76,0,8.39,3.63,8.39,8.4,0,11.07,0,22.14,0,33.22,0,4.75-3.64,8.37-8.41,8.38-5.54,0-11.07,0-16.61,0Zm-19.4-6.55l.05,.16c.6,0,1.21-.06,1.8,.01,.86,.1,1.4-.27,1.97-.88,4.08-4.43,8.2-8.83,12.3-13.24,.51-.55,.52-.54,.97,.06,3.36,4.5,6.71,9,10.06,13.5,.29,.39,.6,.55,1.08,.55,3.36-.02,6.71,0,10.07-.01,.17,0,.4,.07,.5-.08,.13-.21-.11-.35-.22-.49-1.59-2.12-3.19-4.23-4.78-6.35-3.5-4.66-6.99-9.33-10.5-13.98-.29-.38-.32-.62,.04-.99,3.99-4.25,7.96-8.52,11.93-12.78,.64-.69,1.28-1.38,1.92-2.08,.1-.11,.29-.21,.19-.39-.07-.13-.25-.08-.38-.08-.59,0-1.18,.02-1.77,0-.47-.02-.81,.14-1.13,.49-1.43,1.56-2.88,3.11-4.32,4.66-2.55,2.74-5.11,5.48-7.66,8.23-.55,.59-.56,.6-1.07-.08-3.16-4.23-6.33-8.45-9.49-12.68-.32-.43-.66-.63-1.22-.63-3.24,.03-6.48,.01-9.72,.02-.2,0-.48-.11-.59,.12-.09,.19,.14,.34,.26,.49,4.87,6.55,9.75,13.1,14.63,19.64,.25,.33,.26,.54-.03,.85-3.77,4.02-7.53,8.06-11.29,12.09-1.2,1.29-2.41,2.58-3.61,3.87Z"/><path d="M12.99,8.71c.73,0,1.45,.01,2.18,0,.37,0,.63,.13,.85,.42,4.41,5.89,8.82,11.79,13.23,17.68,3.4,4.54,6.8,9.08,10.2,13.62,.13,.18,.42,.35,.29,.59-.12,.23-.43,.12-.66,.12-1.28,0-2.55-.01-3.83,.01-.5,0-.83-.15-1.14-.56-6.16-8.21-12.34-16.41-18.51-24.61-1.68-2.23-3.36-4.45-5.03-6.68-.11-.15-.34-.3-.24-.5,.1-.19,.36-.09,.54-.1,.71,0,1.41,0,2.12,0Z"/></svg>